<?xml version="1.0" encoding="utf-8"?>
<svg contentScriptType="text/ecmascript" xmlns:xlink="http://www.w3.org/1999/xlink" zoomAndPan="magnify" contentStyleType="text/css" viewBox="74.0 85.0 534.0 434.1035" xmlns:cacoo="http://cacoo.com/" preserveAspectRatio="xMidYMin meet" xmlns="http://www.w3.org/2000/svg" version="1.1"><defs><marker refX="14.0" refY="7.0" markerUnits="userSpaceOnUse" orient="auto" id="id4" markerHeight="14.0" viewBox="0 0 14.0 14.0" preserveAspectRatio="xMidYMid meet" markerWidth="14.0" overflow="visible"><path fill="none" d="M0 0 L14.0 7.0 L0 14.0" stroke-width="2.0" stroke-linejoin="round" stroke-linecap="round" stroke="#e33933"/></marker><marker refX="14.0" refY="7.0" markerUnits="userSpaceOnUse" orient="auto" id="id5" markerHeight="14.0" viewBox="0 0 14.0 14.0" preserveAspectRatio="xMidYMid meet" markerWidth="14.0" overflow="visible"><path fill="none" d="M0 0 L14.0 7.0 L0 14.0" stroke-width="2.0" stroke-linejoin="round" stroke-linecap="round" stroke="#e33933"/></marker><marker refX="14.0" refY="7.0" markerUnits="userSpaceOnUse" orient="auto" id="id6" markerHeight="14.0" viewBox="0 0 14.0 14.0" preserveAspectRatio="xMidYMid meet" markerWidth="14.0" overflow="visible"><path fill="none" d="M0 0 L14.0 7.0 L0 14.0" stroke-width="2.0" stroke-linejoin="round" stroke-linecap="round" stroke="#97d077"/></marker><marker refX="14.0" refY="7.0" markerUnits="userSpaceOnUse" orient="auto" id="id7" markerHeight="14.0" viewBox="0 0 14.0 14.0" preserveAspectRatio="xMidYMid meet" markerWidth="14.0" overflow="visible"><path fill="none" d="M0 0 L14.0 7.0 L0 14.0" stroke-width="2.0" stroke-linejoin="round" stroke-linecap="round" stroke="#97d077"/></marker><marker refX="14.0" refY="7.0" markerUnits="userSpaceOnUse" orient="auto" id="id15" markerHeight="14.0" viewBox="0 0 14.0 14.0" preserveAspectRatio="xMidYMid meet" markerWidth="14.0" overflow="visible"><path fill="none" d="M0 0 L14.0 7.0 L0 14.0" stroke-width="2.0" stroke-linejoin="round" stroke-linecap="round" stroke="#000000"/></marker><marker refX="14.0" refY="7.0" markerUnits="userSpaceOnUse" orient="auto" id="id16" markerHeight="14.0" viewBox="0 0 14.0 14.0" preserveAspectRatio="xMidYMid meet" markerWidth="14.0" overflow="visible"><path fill="none" d="M0 0 L14.0 7.0 L0 14.0" stroke-width="2.0" stroke-linejoin="round" stroke-linecap="round" stroke="#000000"/></marker><marker refX="14.0" refY="7.0" markerUnits="userSpaceOnUse" orient="auto" id="id17" markerHeight="14.0" viewBox="0 0 14.0 14.0" preserveAspectRatio="xMidYMid meet" markerWidth="14.0" overflow="visible"><path fill="none" d="M0 0 L14.0 7.0 L0 14.0" stroke-width="2.0" stroke-linejoin="round" stroke-linecap="round" stroke="#000000"/></marker><marker refX="14.0" refY="7.0" markerUnits="userSpaceOnUse" orient="auto" id="id26" markerHeight="14.0" viewBox="0 0 14.0 14.0" preserveAspectRatio="xMidYMid meet" markerWidth="14.0" overflow="visible"><path fill="none" d="M0 0 L14.0 7.0 L0 14.0" stroke-width="2.0" stroke-linejoin="round" stroke-linecap="round" stroke="#000000"/></marker><marker refX="14.0" refY="7.0" markerUnits="userSpaceOnUse" orient="auto" id="id27" markerHeight="14.0" viewBox="0 0 14.0 14.0" preserveAspectRatio="xMidYMid meet" markerWidth="14.0" overflow="visible"><path fill="none" d="M0 0 L14.0 7.0 L0 14.0" stroke-width="2.0" stroke-linejoin="round" stroke-linecap="round" stroke="#e33933"/></marker><marker refX="14.0" refY="7.0" markerUnits="userSpaceOnUse" orient="auto" id="id28" markerHeight="14.0" viewBox="0 0 14.0 14.0" preserveAspectRatio="xMidYMid meet" markerWidth="14.0" overflow="visible"><path fill="none" d="M0 0 L14.0 7.0 L0 14.0" stroke-width="2.0" stroke-linejoin="round" stroke-linecap="round" stroke="#74c14a"/></marker></defs><g><g transform="translate(529.0 140.8965)"><path fill="#ffffff" fill-opacity="1.0" d="M0.0 6.0 L64.00000000000006 6.0 L64.00000000000006 52.5 Q64.00000000000006 54.98528137423857 54.62741699796954 56.742640687119284 Q45.25483399593911 58.5 32.00000000000002 58.5 Q18.745166004060973 58.5 9.372583002030485 56.742640687119284 Q0.0 54.98528137423857 0.0 52.5 L0.0 6.0z" stroke-width="1.0" stroke-linejoin="round" stroke="#000000"/><path fill="#ffffff" fill-opacity="1.0" d="M64.00000000000006 6.0 Q64.00000000000006 8.485281374238571 54.62741699796954 10.242640687119284 Q45.25483399593911 11.999999999999998 32.00000000000003 12.0 Q18.745166004060973 12.0 9.372583002030488 10.242640687119286 Q0.0 8.485281374238571 0.0 6.000000000000001 Q0.0 3.5147186257614313 9.372583002030485 1.7573593128807152 Q18.745166004060973 8.881784197001252E-16 32.00000000000002 0.0 Q45.25483399593911 -8.881784197001252E-16 54.62741699796954 1.7573593128807143 Q64.00000000000006 3.5147186257614287 64.00000000000006 6.0z" stroke-width="1.0" stroke-linejoin="round" stroke="#000000"/><g transform="translate(0.0 12.0)"><clipPath id="id0"><path d="M0 0 L64.0 0 L64.0 46.5 L0 46.5z"/></clipPath><text font-size="12" clip-path="url(#id0)" text-decoration="none" fill="#000000" font-family="Arial,Arial" font-style="normal" font-weight="normal"><tspan x="18.0" xml:space="preserve" y="19.25" textLength="28.0">main</tspan><tspan x="11.0" xml:space="preserve" y="36.25" textLength="41.0">master</tspan></text></g></g><g transform="translate(529.0 376.8965)"><path fill="#ffffff" fill-opacity="1.0" d="M0.0 6.0 L63.99999999999992 6.0 L63.99999999999992 52.5 Q63.99999999999992 54.98528137423857 54.62741699796942 56.742640687119284 Q45.25483399593904 58.5 31.999999999999932 58.5 Q18.745166004060934 58.5 9.372583002030463 56.742640687119284 Q0.0 54.98528137423857 0.0 52.5 L0.0 6.0z" stroke-width="1.0" stroke-linejoin="round" stroke="#000000"/><path fill="#ffffff" fill-opacity="1.0" d="M63.99999999999992 6.0 Q63.99999999999992 8.485281374238571 54.62741699796942 10.242640687119284 Q45.25483399593904 11.999999999999998 31.99999999999996 12.0 Q18.74516600406094 12.0 9.37258300203047 10.242640687119286 Q0.0 8.485281374238571 0.0 6.000000000000001 Q0.0 3.5147186257614313 9.372583002030463 1.7573593128807152 Q18.745166004060934 8.881784197001252E-16 31.999999999999932 0.0 Q45.25483399593904 -8.881784197001252E-16 54.62741699796942 1.7573593128807143 Q63.99999999999992 3.5147186257614287 63.99999999999992 6.0z" stroke-width="1.0" stroke-linejoin="round" stroke="#000000"/><g transform="translate(0.0 12.0)"><clipPath id="id1"><path d="M0 0 L64.0 0 L64.0 46.5 L0 46.5z"/></clipPath><text font-size="12" clip-path="url(#id1)" text-decoration="none" fill="#000000" font-family="Arial,Arial" font-style="normal" font-weight="normal"><tspan x="5.0" xml:space="preserve" y="19.25" textLength="46.0">comment</tspan><tspan x="11.0" xml:space="preserve" y="36.25" textLength="41.0">master</tspan></text></g></g><g transform="translate(293.5289580126552 170.1465)"><path fill="#ffffff" fill-opacity="1.0" d="M51.74956447969533 68.4248898947933 L0.424969148024419 34.35350099488455 L51.74956447969533 0.28211209497580036 L103.07415981136624 34.35350099488455 L51.74956447969533 68.4248898947933 L51.74956447969533 68.4248898947933z" stroke-width="1.0" stroke-linejoin="round" stroke="#000000"/><g transform="translate(20.199307221852635 21.163783014064215)"><clipPath id="id2"><path d="M0 0 L62.58726465655704 0 L62.58726465655704 26.463928188151897 L0 26.463928188151897z"/></clipPath><text font-size="12" clip-path="url(#id2)" text-decoration="none" fill="#000000" font-family="Arial,Arial" font-style="normal" font-weight="normal"><tspan x="17.0" xml:space="preserve" y="17.73196409407595" textLength="28.0">main</tspan></text></g></g><g transform="translate(293.5289580126552 406.1465)"><path fill="#ffffff" fill-opacity="1.0" d="M51.381583974689526 68.70699999999998 L7.148564543362447E-16 34.35349999999998 L51.381583974689526 -5.911707234851347E-15 L102.76316794937905 34.35349999999998 L51.381583974689526 68.70699999999998 L51.381583974689526 68.70699999999998z" stroke-width="1.0" stroke-linejoin="round" stroke="#000000"/><g transform="translate(19.79629465597243 21.054571154298447)"><clipPath id="id3"><path d="M0 0 L62.65675888753867 0 L62.65675888753867 26.683049513549793 L0 26.683049513549793z"/></clipPath><text font-size="12" clip-path="url(#id3)" text-decoration="none" fill="#000000" font-family="Arial,Arial" font-style="normal" font-weight="normal"><tspan x="5.0" xml:space="preserve" y="17.841524756774895" textLength="53.0">comment</tspan></text></g></g><path fill="none" marker-end="url(#id4)" d="M370.94082015818594 187.46430654493017 L529.0 170.1465" stroke-width="2.0" stroke-linejoin="round" stroke="#e33933"/><path fill="none" marker-end="url(#id5)" d="M370.6013339746895 423.32325 L529.0 406.1465" stroke-width="2.0" stroke-linejoin="round" stroke="#e33933"/><path fill="none" marker-end="url(#id6)" d="M370.6013339746895 457.67674999999997 L529.0 474.8535" stroke-width="2.0" stroke-linejoin="round" stroke="#97d077"/><path fill="none" marker-end="url(#id7)" d="M370.94082015818594 221.53569544483895 L529.0 233.75752170027454" stroke-width="2.0" stroke-linejoin="round" stroke="#97d077"/><g transform="translate(389.0 160.1465)"><clipPath id="id8"><path d="M0 0 L58.0 0 L58.0 20.0 L0 20.0z"/></clipPath><text font-size="12" clip-path="url(#id8)" text-decoration="none" fill="#000000" font-family="Arial,Arial" font-style="normal" font-weight="normal"><tspan x="2.0" xml:space="preserve" y="15.0" textLength="50.0">writable</tspan></text></g><g transform="translate(389.0 225.3535)"><clipPath id="id9"><path d="M0 0 L58.0 0 L58.0 27.0 L0 27.0z"/></clipPath><text font-size="12" clip-path="url(#id9)" text-decoration="none" fill="#000000" font-family="Arial,Arial" font-style="normal" font-weight="normal"><tspan x="2.0" xml:space="preserve" y="15.0" textLength="51.0">readonly</tspan></text></g><g transform="translate(389.0 396.1465)"><clipPath id="id10"><path d="M0 0 L58.0 0 L58.0 20.0 L0 20.0z"/></clipPath><text font-size="12" clip-path="url(#id10)" text-decoration="none" fill="#000000" font-family="Arial,Arial" font-style="normal" font-weight="normal"><tspan x="2.0" xml:space="preserve" y="15.0" textLength="50.0">writable</tspan></text></g><g transform="translate(389.0 461.3535)"><clipPath id="id11"><path d="M0 0 L58.0 0 L58.0 27.0 L0 27.0z"/></clipPath><text font-size="12" clip-path="url(#id11)" text-decoration="none" fill="#000000" font-family="Arial,Arial" font-style="normal" font-weight="normal"><tspan x="2.0" xml:space="preserve" y="15.0" textLength="51.0">readonly</tspan></text></g><g transform="translate(116.5 213.8535)"><path fill="#ffffff" fill-opacity="1.0" d="M115.00000000000001 25.0 Q115.00000000000001 35.354843 98.15939999999996 42.67725 Q81.31799499999998 50.0 57.50000000000001 50.0 Q33.68292499999999 50.0 16.841465489999997 42.677624 Q0.0 35.35525 0.0 25.0 Q0.0 14.64475 16.841463189999995 7.3223763 Q33.68292499999999 0.0 57.50000000000001 0.0 Q81.31840209999994 0.0 98.15939999999996 7.3223753 Q115.00000000000001 14.644578 115.00000000000001 25.0 L115.00000000000001 25.0z" stroke-width="1.0" stroke-linejoin="round" stroke="#000000"/><g transform="translate(15.920599842071528 7.961000442504883)"><clipPath id="id12"><path d="M0 0 L83.16799964904784 0 L83.16799964904784 33.847999572753906 L0 33.847999572753906z"/></clipPath><text font-size="12" clip-path="url(#id12)" text-decoration="none" fill="#000000" font-family="Arial,Arial" font-style="normal" font-weight="normal"><tspan x="14.0" xml:space="preserve" y="21.423999786376953" textLength="54.0">Publisher</tspan></text></g></g><g transform="translate(116.5 145.1465)"><path fill="#ffffff" fill-opacity="1.0" d="M115.00000000000001 25.0 Q115.00000000000001 35.354843 98.15939999999996 42.67725 Q81.31799499999998 50.0 57.50000000000001 50.0 Q33.68292499999999 50.0 16.841465489999997 42.677624 Q0.0 35.35525 0.0 25.0 Q0.0 14.64475 16.841463189999995 7.3223763 Q33.68292499999999 0.0 57.50000000000001 0.0 Q81.31840209999994 0.0 98.15939999999996 7.3223753 Q115.00000000000001 14.644578 115.00000000000001 25.0 L115.00000000000001 25.0z" stroke-width="1.0" stroke-linejoin="round" stroke="#000000"/><g transform="translate(15.920599842071528 7.961000442504883)"><clipPath id="id13"><path d="M0 0 L83.16799964904784 0 L83.16799964904784 33.847999572753906 L0 33.847999572753906z"/></clipPath><text font-size="12" clip-path="url(#id13)" text-decoration="none" fill="#000000" font-family="Arial,Arial" font-style="normal" font-weight="normal"><tspan x="27.0" xml:space="preserve" y="21.423999786376953" textLength="28.0">Book</tspan></text></g></g><g transform="translate(116.5 415.5)"><path fill="#ffffff" fill-opacity="1.0" d="M115.00000000000001 25.0 Q115.00000000000001 35.354843 98.15939999999996 42.67725 Q81.31799499999998 50.0 57.50000000000001 50.0 Q33.68292499999999 50.0 16.841465489999997 42.677624 Q0.0 35.35525 0.0 25.0 Q0.0 14.64475 16.841463189999995 7.3223763 Q33.68292499999999 0.0 57.50000000000001 0.0 Q81.31840209999994 0.0 98.15939999999996 7.3223753 Q115.00000000000001 14.644578 115.00000000000001 25.0 L115.00000000000001 25.0z" stroke-width="1.0" stroke-linejoin="round" stroke="#000000"/><g transform="translate(14.920599842071528 7.961000442504883)"><clipPath id="id14"><path d="M0 0 L83.16799964904784 0 L83.16799964904784 33.847999572753906 L0 33.847999572753906z"/></clipPath><text font-size="12" clip-path="url(#id14)" text-decoration="none" fill="#000000" font-family="Arial,Arial" font-style="normal" font-weight="normal"><tspan x="14.0" xml:space="preserve" y="21.423999786376953" textLength="55.0">Comment</tspan></text></g></g><path fill="none" stroke-linejoin="round" stroke-dasharray="6.0 2.0" d="M231.5 170.1465 L319.61622482651507 187.46430654493017" stroke="#000000" stroke-width="2.0" marker-end="url(#id15)"/><path fill="none" stroke-linejoin="round" stroke-dasharray="6.0 2.0" d="M231.5 238.8535 L319.61622482651507 221.53569544483895" stroke="#000000" stroke-width="2.0" marker-end="url(#id16)"/><path fill="none" stroke-linejoin="round" stroke-dasharray="6.0 2.0" d="M231.5 440.5 L293.5289580126552 440.5" stroke="#000000" stroke-width="2.0" marker-end="url(#id17)"/><g transform="translate(89.0 100.0)"><clipPath id="id18"><path d="M0 0 L176.0 0 L176.0 20.0 L0 20.0z"/></clipPath><text font-size="12" clip-path="url(#id18)" text-decoration="none" fill="#000000" font-family="Arial,Arial" font-style="normal" font-weight="bold"><tspan x="2.0" xml:space="preserve" y="15.0" textLength="169.0">Model &lt; ActiveRecord::Base</tspan></text></g><g transform="translate(322.91054198734474 100.0)"><clipPath id="id19"><path d="M0 0 L44.0 0 L44.0 20.0 L0 20.0z"/></clipPath><text font-size="12" clip-path="url(#id19)" text-decoration="none" fill="#000000" font-family="Arial,Arial" font-style="normal" font-weight="bold"><tspan x="2.0" xml:space="preserve" y="15.0" textLength="35.0">Proxy</tspan></text></g><g transform="translate(116.5 299.1465)"><path fill="#ffffff" fill-opacity="1.0" d="M115.00000000000001 25.0 Q115.00000000000001 35.354843 98.15940000000002 42.67725 Q81.31799500000004 50.0 57.50000000000001 50.0 Q33.68292500000001 50.0 16.84146549 42.677624 Q0.0 35.35525 0.0 25.0 Q0.0 14.64475 16.84146319000001 7.3223763 Q33.68292500000001 0.0 57.50000000000001 0.0 Q81.31840210000003 0.0 98.15940000000002 7.3223753 Q115.00000000000001 14.644578 115.00000000000001 25.0 L115.00000000000001 25.0z" stroke-width="1.0" stroke-linejoin="round" stroke="#000000"/><g transform="translate(14.92059984207154 7.961000442504883)"><clipPath id="id20"><path d="M0 0 L83.16799964904786 0 L83.16799964904786 33.847999572753906 L0 33.847999572753906z"/></clipPath><text font-size="12" clip-path="url(#id20)" text-decoration="none" fill="#000000" font-family="Arial,Arial" font-style="normal" font-weight="normal"><tspan x="18.0" xml:space="preserve" y="21.423999786376953" textLength="46.0">BigData</tspan></text></g></g><g transform="translate(293.95090530472953 290.0751120949758)"><path fill="#ffffff" fill-opacity="1.0" d="M50.95963817063662 68.14277779981754 L-1.5432100042289676E-14 34.071388899908776 L50.95963817063662 1.3489209749195652E-14 L101.91927634127326 34.071388899908776 L50.95963817063662 68.14277779981754 L50.95963817063662 68.14277779981754z" stroke-width="1.0" stroke-linejoin="round" stroke="#000000"/><g transform="translate(19.633727393157077 20.881670919088414)"><clipPath id="id21"><path d="M0 0 L62.14222129521437 0 L62.14222129521437 26.463928188151918 L0 26.463928188151918z"/></clipPath><text font-size="12" clip-path="url(#id21)" text-decoration="none" fill="#000000" font-family="Arial,Arial" font-style="normal" font-weight="normal"><tspan x="10.0" xml:space="preserve" y="17.73196409407596" textLength="41.0">special</tspan></text></g></g><g transform="translate(529.0 294.89650099488455)"><path fill="#ffffff" fill-opacity="1.0" d="M0.0 6.0 L63.99999999999999 6.0 L63.99999999999999 52.5 Q63.99999999999999 54.98528137423857 54.6274169979695 56.742640687119284 Q45.254833995939045 58.5 31.999999999999975 58.5 Q18.74516600406095 58.5 9.37258300203047 56.742640687119284 Q0.0 54.98528137423857 0.0 52.5 L0.0 6.0z" stroke-width="1.0" stroke-linejoin="round" stroke="#000000"/><path fill="#ffffff" fill-opacity="1.0" d="M63.99999999999999 6.0 Q63.99999999999999 8.485281374238571 54.6274169979695 10.242640687119284 Q45.254833995939045 11.999999999999998 31.999999999999996 12.0 Q18.745166004060952 12.0 9.37258300203048 10.242640687119286 Q0.0 8.485281374238571 0.0 6.000000000000001 Q0.0 3.5147186257614313 9.37258300203047 1.7573593128807152 Q18.74516600406095 8.881784197001252E-16 31.999999999999975 0.0 Q45.254833995939045 -8.881784197001252E-16 54.6274169979695 1.7573593128807143 Q63.99999999999999 3.5147186257614287 63.99999999999999 6.0z" stroke-width="1.0" stroke-linejoin="round" stroke="#000000"/><g transform="translate(0.0 12.0)"><clipPath id="id22"><path d="M0 0 L64.0 0 L64.0 46.5 L0 46.5z"/></clipPath><text font-size="12" clip-path="url(#id22)" text-decoration="none" fill="#000000" font-family="Arial,Arial" font-style="normal" font-weight="normal"><tspan x="18.0" xml:space="preserve" y="10.75" textLength="28.0">main</tspan><tspan x="11.0" xml:space="preserve" y="27.75" textLength="41.0">special</tspan><tspan x="16.0" xml:space="preserve" y="44.75" textLength="31.0">slave</tspan></text></g></g><g transform="translate(529.0 209.6035)"><path fill="#ffffff" fill-opacity="1.0" d="M0.0 6.0 L64.00000000000006 6.0 L64.00000000000006 52.5 Q64.00000000000006 54.98528137423857 54.62741699796954 56.742640687119284 Q45.25483399593911 58.5 32.00000000000002 58.5 Q18.745166004060973 58.5 9.372583002030485 56.742640687119284 Q0.0 54.98528137423857 0.0 52.5 L0.0 6.0z" stroke-width="1.0" stroke-linejoin="round" stroke="#000000"/><path fill="#ffffff" fill-opacity="1.0" d="M64.00000000000006 6.0 Q64.00000000000006 8.485281374238571 54.62741699796954 10.242640687119284 Q45.25483399593911 11.999999999999998 32.00000000000003 12.0 Q18.745166004060973 12.0 9.372583002030488 10.242640687119286 Q0.0 8.485281374238571 0.0 6.000000000000001 Q0.0 3.5147186257614313 9.372583002030485 1.7573593128807152 Q18.745166004060973 8.881784197001252E-16 32.00000000000002 0.0 Q45.25483399593911 -8.881784197001252E-16 54.62741699796954 1.7573593128807143 Q64.00000000000006 3.5147186257614287 64.00000000000006 6.0z" stroke-width="1.0" stroke-linejoin="round" stroke="#000000"/><g transform="translate(0.0 12.0)"><clipPath id="id23"><path d="M0 0 L64.0 0 L64.0 46.5 L0 46.5z"/></clipPath><text font-size="12" clip-path="url(#id23)" text-decoration="none" fill="#000000" font-family="Arial,Arial" font-style="normal" font-weight="normal"><tspan x="18.0" xml:space="preserve" y="19.25" textLength="28.0">main</tspan><tspan x="16.0" xml:space="preserve" y="36.25" textLength="31.0">slave</tspan></text></g></g><g transform="translate(529.0 445.6035)"><path fill="#ffffff" fill-opacity="1.0" d="M0.0 6.0 L64.00000000000006 6.0 L64.00000000000006 52.5 Q64.00000000000006 54.98528137423857 54.62741699796954 56.742640687119284 Q45.25483399593911 58.5 32.00000000000002 58.5 Q18.745166004060973 58.5 9.372583002030485 56.742640687119284 Q0.0 54.98528137423857 0.0 52.5 L0.0 6.0z" stroke-width="1.0" stroke-linejoin="round" stroke="#000000"/><path fill="#ffffff" fill-opacity="1.0" d="M64.00000000000006 6.0 Q64.00000000000006 8.485281374238571 54.62741699796954 10.242640687119284 Q45.25483399593911 11.999999999999998 32.00000000000003 12.0 Q18.745166004060973 12.0 9.372583002030488 10.242640687119286 Q0.0 8.485281374238571 0.0 6.000000000000001 Q0.0 3.5147186257614313 9.372583002030485 1.7573593128807152 Q18.745166004060973 8.881784197001252E-16 32.00000000000002 0.0 Q45.25483399593911 -8.881784197001252E-16 54.62741699796954 1.7573593128807143 Q64.00000000000006 3.5147186257614287 64.00000000000006 6.0z" stroke-width="1.0" stroke-linejoin="round" stroke="#000000"/><g transform="translate(0.0 12.0)"><clipPath id="id24"><path d="M0 0 L64.0 0 L64.0 46.5 L0 46.5z"/></clipPath><text font-size="12" clip-path="url(#id24)" text-decoration="none" fill="#000000" font-family="Arial,Arial" font-style="normal" font-weight="normal"><tspan x="5.0" xml:space="preserve" y="19.25" textLength="53.0">comment</tspan><tspan x="16.0" xml:space="preserve" y="36.25" textLength="31.0">slave</tspan></text></g></g><g transform="translate(529.0 100.0)"><clipPath id="id25"><path d="M0 0 L64.0 0 L64.0 20.0 L0 20.0z"/></clipPath><text font-size="12" clip-path="url(#id25)" text-decoration="none" fill="#000000" font-family="Arial,Arial" font-style="normal" font-weight="bold"><tspan x="2.0" xml:space="preserve" y="15.0" textLength="55.0">Database</tspan></text></g><path fill="none" stroke-linejoin="round" stroke-dasharray="6.0 2.0" d="M231.5 324.1465 L293.95090530472953 324.14650099488455" stroke="#000000" stroke-width="2.0" marker-end="url(#id26)"/><path fill="none" marker-end="url(#id27)" d="M370.3903625606845 307.1108065449302 L529.0 184.77149999999997" stroke-width="2.0" stroke-linejoin="round" stroke="#e33933"/><path fill="none" marker-end="url(#id28)" d="M370.3903625606845 341.18219544483895 L529.0 324.14650099488455" stroke-width="2.0" stroke-linejoin="round" stroke="#74c14a"/><g transform="translate(389.0 344.7178898947933)"><clipPath id="id29"><path d="M0 0 L58.0 0 L58.0 27.0 L0 27.0z"/></clipPath><text font-size="12" clip-path="url(#id29)" text-decoration="none" fill="#000000" font-family="Arial,Arial" font-style="normal" font-weight="normal"><tspan x="2.0" xml:space="preserve" y="15.0" textLength="51.0">readonly</tspan></text></g><g transform="translate(395.87018164600283 280.0751120949758)"><clipPath id="id30"><path d="M0 0 L58.0 0 L58.0 20.0 L0 20.0z"/></clipPath><text font-size="12" clip-path="url(#id30)" text-decoration="none" fill="#000000" font-family="Arial,Arial" font-style="normal" font-weight="normal"><tspan x="2.0" xml:space="preserve" y="15.0" textLength="50.0">writable</tspan></text></g></g></svg>
